<svg width="479" height="76" viewBox="0 0 479 76" fill="none" xmlns="http://www.w3.org/2000/svg">
<path d="M106.047 75.058C105.901 75.058 104.162 75.0488 104.071 75.0488C104.666 75.241 105.434 75.3965 106.047 75.058Z" fill="black"/>
<path d="M96.0655 54.1612V57.711L91.4361 58.7265L93.7599 47.9124H99.0206L98.7461 58.5253C95.0408 60.5746 90.1827 62.0385 84.2541 62.0385C70.9514 62.0385 60.2654 54.1978 60.2654 38.0681C60.2654 21.7188 71.7657 14.0977 84.7299 14.0977C89.9539 14.0977 94.1625 15.2687 98.2521 17.5102L98.5266 28.2237H93.2659L90.8963 17.309L95.5257 18.3794V22.1945C92.2412 19.2303 89.469 18.0043 86.3492 18.0043C78.966 18.0043 72.4885 24.006 72.4885 38.123C72.4885 52.185 78.7098 58.0861 86.0107 58.0861C89.4599 58.0861 92.8267 56.6589 96.0655 54.1612Z" fill="black"/>
<path d="M101.482 57.0432L108.581 56.0094H109.816L116.367 57.0432V60.7485H101.482V57.0432ZM121.115 15.2871H128.243L143.778 60.7485H131.975L120.191 23.6767L122.771 20.191L109.579 60.7577H105.489L121.115 15.2871ZM113.686 43.5484H132.332L133.887 47.574H112.525L113.686 43.5484ZM125.297 57.1896L133.101 56.1557H137.721L146.586 57.1896V60.7485H125.306V57.1896H125.297Z" fill="black"/>
<path d="M151.444 19.2856L156.44 15.3881L154.628 28.2241H148.874L149.13 15.3881H189.669L189.87 28.2241H184.161L182.35 15.3881L187.299 19.2856H151.444ZM170.813 56.0097L181.224 57.0435V60.7489H157.574V57.0435L167.794 56.0097H170.813ZM163.576 36.7876C163.576 29.6788 163.576 22.4968 163.366 15.3789H175.378C175.168 22.3505 175.168 29.5325 175.168 36.7876V39.2944C175.168 46.4581 175.168 53.6401 175.378 60.7489H163.366C163.576 53.7773 163.576 46.5953 163.576 39.3402V36.7876Z" fill="black"/>
<path d="M191.856 57.0441L198.955 56.0103H200.19L206.741 57.0441V60.7495H191.856V57.0441ZM211.489 15.288H218.617L234.152 60.7495H222.349L210.565 23.6777L213.145 20.1919L199.953 60.7586H195.863L211.489 15.288ZM204.06 43.5493H222.706L224.262 47.5749H202.908L204.06 43.5493ZM217.381 2.77216C219.614 0.640444 220.94 0 222.56 0C224.737 0 226.311 1.74747 226.311 3.52238C226.311 4.81239 225.661 6.569 222.413 8.01455C218.781 9.65222 215.241 11.1893 211.663 12.7903L209.769 10.0822C212.304 7.5754 214.939 5.08686 217.381 2.77216ZM215.671 57.1905L223.475 56.1567H228.095L236.96 57.1905V60.7495H215.68V57.1905H215.671Z" fill="black"/>
<path d="M240.126 19.094V15.3887H262.898V19.094L252.678 20.1279H250.153L240.126 19.094ZM251.242 56.0103V60.7586H240.135V57.0533L250.153 56.0194H251.242V56.0103ZM245.231 15.3887H257.244C257.033 22.3968 257.033 29.5788 257.033 36.7974V40.4387C257.033 46.5045 257.033 53.6864 257.244 60.7586H245.231C245.441 53.7505 245.441 46.5685 245.441 40.7955V36.7974C245.441 29.6428 245.441 22.4609 245.231 15.3887ZM276.575 47.2181L275.889 60.7495H251.242V56.7971H273.575L268.332 60.7495L271.04 47.2181H276.575Z" fill="black"/>
<path d="M324.059 38.0681C324.059 53.9874 313.556 62.0385 302.156 62.0385C290.756 62.0385 280.226 54.1612 280.226 38.0681C280.226 22.1488 290.821 14.0977 302.156 14.0977C313.483 14.0977 324.059 21.975 324.059 38.0681ZM302.156 58.0312C309.1 58.0312 311.827 49.5135 311.827 38.0681C311.827 26.6684 309.1 18.05 302.156 18.05C295.212 18.05 292.458 26.6593 292.458 38.0681C292.458 49.5226 295.212 58.0312 302.156 58.0312Z" fill="black"/>
<path d="M368.23 58.0129C363.418 60.7485 358.725 62.0385 352.595 62.0385C338.386 62.0385 328.698 53.045 328.698 37.9674C328.698 23.4388 337.755 14.0977 353.418 14.0977C357.956 14.0977 362.787 15.1315 366.794 17.2632L367.068 28.0225H361.707L359.283 17.0528L364.058 18.0317V21.673C360.682 19.0198 357.773 17.9951 354.754 17.9951C347.279 17.9951 340.911 24.2256 340.911 37.9583C340.911 51.6727 347.005 58.1044 354.635 58.1044C357.526 58.1044 359.475 57.3084 362.466 55.6708L357.215 60.1081V54.8565C357.215 49.2573 357.142 44.0241 357.005 38.3791H368.413C368.276 43.9052 368.203 49.3763 368.203 55.1035V58.0129H368.23ZM350.893 42.1028V38.3974H371.936V42.1028L363.839 43.1915H359.319L350.893 42.1028Z" fill="black"/>
<path d="M419.135 38.0681C419.135 53.9874 408.632 62.0385 397.233 62.0385C385.833 62.0385 375.302 54.1612 375.302 38.0681C375.302 22.1488 385.897 14.0977 397.233 14.0977C408.559 14.0977 419.135 21.975 419.135 38.0681ZM397.223 58.0312C404.168 58.0312 406.894 49.5135 406.894 38.0681C406.894 26.6684 404.168 18.05 397.223 18.05C390.279 18.05 387.526 26.6593 387.526 38.0681C387.535 49.5226 390.279 58.0312 397.223 58.0312Z" fill="black"/>
<path d="M430.33 36.6312C428.702 41.654 448.116 35.4693 448.756 32.4409C447.366 32.505 447.86 31.0411 447.375 30.3916C448.043 30.4465 448.162 29.6139 448.903 29.9981C448.555 30.8947 449.095 31.2516 449.031 31.9743C448.93 30.7026 456.56 18.8821 452.315 19.5317C447.585 19.5683 441.904 21.0321 437.741 23.2553C434.941 24.2251 433.679 29.1656 432.544 31.4986C433.075 31.3705 433.432 31.5718 433.889 32.1299C433.057 32.4409 432.682 32.5965 432.197 32.322L430.33 36.6312ZM449.287 27.3083C449.342 26.979 449.991 27.0522 450.001 27.409C449.717 27.29 449.369 27.7658 449.287 27.3083ZM434.374 31.279C434.328 30.5379 435.124 30.7209 434.941 29.8335C436.039 30.355 436.753 29.5315 437.595 29.2937C438.052 29.8335 437.878 30.7575 438.427 31.2424C439.388 31.3065 439.269 29.8243 440.394 30.3001C439.845 31.3614 441.172 31.279 440.861 32.2031C438.583 32.2305 436.607 31.3797 434.374 31.279Z" fill="black"/>
<path d="M430.312 44.0318C434.722 54.297 434.548 58.2494 446.908 60.6281C448.171 60.3537 455.023 62.7416 453.651 59.3747C452.928 58.0939 449.15 48.0025 447.988 47.2706L447.549 47.2065C447.558 47.0967 447.576 46.9961 447.585 46.8863C446.378 45.0565 428.464 39.1554 430.312 44.0318ZM443.761 57.0326C443.825 57.0417 443.88 57.0509 443.944 57.0692C444.264 57.4168 443.843 58.716 443.285 59.1094C442.672 58.6702 442.251 56.813 443.761 57.0326ZM440.971 52.641C441.986 52.8332 441.501 54.9832 440.266 54.3977C439.818 53.9128 439.909 52.4947 440.971 52.641Z" fill="black"/>
<path d="M454.575 36.668C453.248 40.0531 460 37.7201 461.3 38.0129C463.989 37.8848 468.052 35.808 470.513 34.7924C473.816 33.8226 476.45 23.9417 477.951 21.3891C478.363 20.4376 477.978 19.6874 477.109 19.5685C472.187 19.477 466.332 20.9591 462.004 23.3013C458.71 24.2894 456.076 34.1245 454.575 36.668ZM457.192 36.3661C457.869 36.1922 458.454 35.5335 458.637 36.5673C458.418 36.6222 457.155 37.1346 457.192 36.3661Z" fill="black"/>
<path d="M454.584 44.079L456.469 48.4705C456.643 47.949 457.073 47.5556 457.777 47.7386C457.667 48.5163 457.558 49.2756 456.862 49.4037C457.887 51.4897 459.04 55.8812 461.3 57.0889C461.492 57.098 461.647 57.0706 461.62 56.8327L462.343 56.9333C462.315 57.1438 462.416 57.3084 462.663 57.281C462.644 57.4274 462.617 57.5738 462.608 57.7202C466.569 59.9068 472.041 61.1053 476.588 61.2059C480.201 61.4804 475.874 55.7165 475.737 54.4265C475.435 55.1127 474.968 55.625 473.953 55.5335C473.925 55.2682 473.587 55.1218 473.266 55.131C474.172 53.8867 473.733 53.5116 473.971 52.7888C474.062 53.1914 474.758 52.9169 475.105 52.9718C474.099 50.7669 472.983 46.9792 470.449 46.0186C468.097 45.0213 464.328 43.0268 461.72 42.7707C460.321 43.0726 453.322 40.639 454.584 44.079ZM475.16 59.9983C475.416 59.3395 474.986 57.8025 476.139 58.3057C476.084 59.1748 475.828 59.8061 475.16 59.9983ZM471.428 55.195C471.876 55.2316 472.086 54.8748 472.553 55.0486C472.608 55.4695 472.983 55.6891 472.745 56.2929C472.004 56.2746 471.153 56.0093 471.428 55.195ZM463.77 54.7101C464.3 54.8016 465.618 53.9233 465.975 54.7193C465.407 54.8931 465.316 55.6067 465.042 56.1099C464.044 56.1648 464.081 55.2316 463.77 54.7101Z" fill="black"/>
<path d="M47.7862 43.0642C49.4147 38.0414 30.0005 44.2261 29.3601 47.2544C30.7507 47.1904 30.2567 48.6543 30.7416 49.3038C30.0737 49.2489 29.9548 50.0815 29.2137 49.6972C29.5613 48.8006 29.0216 48.4438 29.0856 47.7211C29.1863 48.9928 21.556 60.8133 25.8011 60.1637C30.5312 60.1271 36.2127 58.6633 40.3755 56.4401C43.1751 55.4703 44.4376 50.5298 45.5721 48.1968C45.0415 48.3249 44.6847 48.1236 44.2272 47.5655C45.0598 47.2545 45.4349 47.0989 45.9198 47.3734L47.7862 43.0642ZM28.8294 52.3871C28.7745 52.7164 28.125 52.6432 28.1158 52.2864C28.3994 52.3962 28.7471 51.9205 28.8294 52.3871ZM43.7423 48.4164C43.7881 49.1575 42.9921 48.9745 43.1751 49.8619C42.0772 49.3404 41.3636 50.1638 40.5219 50.4017C40.0644 49.8619 40.2383 48.9379 39.6893 48.453C38.7287 48.3889 38.8476 49.8711 37.7223 49.3953C38.2712 48.3341 36.9446 48.4164 37.2557 47.4923C39.5338 47.4649 41.51 48.3157 43.7423 48.4164Z" fill="black"/>
<path d="M47.8044 35.6634C43.3946 25.3982 43.5685 21.4458 31.2081 19.0671C29.9456 19.3416 23.0929 16.9537 24.4653 20.3205C25.1881 21.6014 28.9666 31.6927 30.1285 32.4247L30.5677 32.4887C30.5585 32.5985 30.5402 32.6991 30.5311 32.8089C31.7388 34.6296 49.6525 40.5398 47.8044 35.6634ZM34.3554 22.6627C34.2913 22.6535 34.2364 22.6444 34.1724 22.6261C33.8522 22.2784 34.273 20.9792 34.8311 20.5858C35.4441 21.0158 35.865 22.8731 34.3554 22.6627ZM37.1458 27.045C36.1303 26.8529 36.6152 24.7029 37.8503 25.2884C38.2986 25.7825 38.2163 27.2006 37.1458 27.045Z" fill="black"/>
<path d="M23.5413 43.0283C24.8679 39.6432 18.1159 41.9762 16.8168 41.6834C14.127 41.8115 10.0648 43.8884 7.6037 44.9039C4.30091 45.8737 1.66598 55.7546 0.165547 58.3072C-0.246159 59.2587 0.138112 60.0089 1.00727 60.1278C5.92944 60.2193 11.7848 58.7372 16.1123 56.3951C19.4059 55.407 22.0409 45.5718 23.5413 43.0283ZM20.9247 43.3303C20.2476 43.5041 19.6621 44.1628 19.4791 43.129C19.6987 43.0741 20.9613 42.5618 20.9247 43.3303Z" fill="black"/>
<path d="M23.5321 35.6071L21.6474 31.2156C21.4736 31.7371 21.0528 32.1305 20.3391 31.9475C20.4489 31.1699 20.5587 30.4105 21.254 30.2824C20.2293 28.1964 19.0766 23.8049 16.8168 22.5972C16.6246 22.5881 16.4691 22.6155 16.4965 22.8534L15.7738 22.7528C15.8012 22.5423 15.7006 22.3777 15.4536 22.4051C15.4719 22.2587 15.4993 22.1123 15.5084 21.966C11.5469 19.7793 6.07582 18.5808 1.52876 18.4802C-2.0851 18.2057 2.24237 23.9696 2.37961 25.2596C2.68153 24.5734 3.14811 24.0611 4.16365 24.1526C4.1911 24.4179 4.52961 24.5643 4.84983 24.5551C3.94407 25.7994 4.38324 26.1745 4.14536 26.8973C4.05387 26.4947 3.35855 26.7692 3.01089 26.7143C4.01728 28.9192 5.13346 32.7069 7.66774 33.6676C10.019 34.6648 13.7884 36.6593 16.3959 36.9154C17.7957 36.6227 24.7947 39.0563 23.5321 35.6071ZM2.956 19.697C2.69983 20.3557 3.12982 21.8928 1.97705 21.3896C2.03194 20.5204 2.28812 19.88 2.956 19.697ZM6.68879 24.5002C6.24048 24.4636 6.03008 24.8204 5.56348 24.6466C5.50858 24.2258 5.13345 24.0062 5.37133 23.4024C6.1124 23.4115 6.96326 23.686 6.68879 24.5002ZM14.3465 24.9851C13.8159 24.8936 12.4984 25.772 12.1416 24.976C12.7088 24.8022 12.8003 24.0885 13.0748 23.5853C14.0721 23.5304 14.0354 24.4636 14.3465 24.9851Z" fill="black"/>
</svg>
