<svg width="371" height="59" viewBox="0 0 371 59" fill="none" xmlns="http://www.w3.org/2000/svg">
<path d="M82.1978 58.1778C82.0843 58.1778 80.7369 58.1707 80.666 58.1707C81.127 58.3196 81.7226 58.4401 82.1978 58.1778Z" fill="#F6F6F5"/>
<path d="M74.4596 41.9812V44.7327L70.8713 45.5198L72.6726 37.1378H76.7501L76.5374 45.3638C73.6653 46.9523 69.8998 48.0869 65.3046 48.0869C54.9937 48.0869 46.7109 42.0096 46.7109 29.5075C46.7109 16.8351 55.6248 10.928 65.6734 10.928C69.7225 10.928 72.9846 11.8357 76.1544 13.5731L76.3672 21.8771H72.2896L70.4529 13.4171L74.0412 14.2467V17.2039C71.4954 14.9063 69.3467 13.956 66.9285 13.956C61.2058 13.956 56.1851 18.608 56.1851 29.55C56.1851 40.4495 61.0072 45.0234 66.6661 45.0234C69.3396 45.0234 71.9492 43.9172 74.4596 41.9812Z" fill="#F6F6F5"/>
<path d="M78.6582 44.2147L84.1611 43.4134H85.1185L90.1959 44.2147V47.0867H78.6582V44.2147ZM93.8763 11.8496H99.4005L111.442 47.0867H102.294L93.1601 18.3524L95.1599 15.6506L84.9341 47.0938H81.7642L93.8763 11.8496ZM88.1181 33.7549H102.57L103.776 36.8751H87.2175L88.1181 33.7549ZM97.1171 44.3282L103.166 43.5269H106.747L113.619 44.3282V47.0867H97.1242V44.3282H97.1171Z" fill="#F6F6F5"/>
<path d="M117.383 14.9487L121.255 11.9278L119.851 21.877H115.391L115.589 11.9278H147.011L147.167 21.877H142.742L141.338 11.9278L145.174 14.9487H117.383ZM132.396 43.4136L140.466 44.2149V47.0869H122.135V44.2149L130.056 43.4136H132.396ZM126.787 28.5145C126.787 23.0045 126.786 17.4378 126.623 11.9207H135.934C135.771 17.3243 135.771 22.8911 135.771 28.5145V30.4576C135.771 36.0101 135.771 41.5769 135.934 47.0869H126.623C126.786 41.6833 126.787 36.1165 126.787 30.493V28.5145Z" fill="#F6F6F5"/>
<path d="M148.707 44.2149L154.21 43.4135H155.167L160.245 44.2149V47.0869H148.707V44.2149ZM163.925 11.8497H169.449L181.491 47.0869H172.343L163.209 18.3525L165.209 15.6507L154.983 47.094H151.813L163.925 11.8497ZM158.167 33.7551H172.619L173.825 36.8753H157.273L158.167 33.7551ZM168.492 2.1487C170.222 0.496408 171.251 0 172.506 0C174.194 0 175.413 1.35446 175.413 2.73019C175.413 3.73008 174.91 5.09163 172.392 6.21207C169.577 7.48143 166.833 8.67279 164.06 9.91378L162.592 7.81473C164.556 5.87169 166.599 3.94283 168.492 2.1487ZM167.166 44.3283L173.215 43.527H176.796L183.668 44.3283V47.0869H167.173V44.3283H167.166Z" fill="#F6F6F5"/>
<path d="M186.121 14.7997V11.9277H203.772V14.7997L195.85 15.6011H193.893L186.121 14.7997ZM194.737 43.4135V47.094H186.128V44.222L193.893 43.4206H194.737V43.4135ZM190.078 11.9277H199.389C199.226 17.3597 199.226 22.9265 199.226 28.5216V31.344C199.226 36.0456 199.226 41.6123 199.389 47.094H190.078C190.241 41.662 190.241 36.0952 190.241 31.6205V28.5216C190.241 22.9761 190.241 17.4094 190.078 11.9277ZM214.373 36.5987L213.841 47.0869H194.737V44.0234H212.047L207.984 47.0869L210.083 36.5987H214.373Z" fill="#F6F6F5"/>
<path d="M251.178 29.5075C251.178 41.8465 243.037 48.0869 234.201 48.0869C225.365 48.0869 217.203 41.9812 217.203 29.5075C217.203 17.1684 225.415 10.928 234.201 10.928C242.98 10.928 251.178 17.0337 251.178 29.5075ZM234.201 44.9809C239.584 44.9809 241.697 38.3788 241.697 29.5075C241.697 20.6716 239.584 13.9915 234.201 13.9915C228.819 13.9915 226.684 20.6645 226.684 29.5075C226.684 38.3859 228.819 44.9809 234.201 44.9809Z" fill="#F6F6F5"/>
<path d="M285.415 44.9667C281.685 47.087 278.047 48.0869 273.296 48.0869C262.283 48.0869 254.773 41.1161 254.773 29.4294C254.773 18.1683 261.794 10.928 273.934 10.928C277.452 10.928 281.196 11.7293 284.302 13.3816L284.515 21.7211H280.359L278.48 13.2185L282.182 13.9773V16.7997C279.565 14.7432 277.31 13.9489 274.97 13.9489C269.176 13.9489 264.24 18.7782 264.24 29.4224C264.24 40.0524 268.963 45.0376 274.878 45.0376C277.118 45.0376 278.629 44.4207 280.948 43.1513L276.877 46.5906V42.5202C276.877 38.1802 276.821 34.124 276.714 29.7486H285.557C285.451 34.0318 285.394 38.2724 285.394 42.7116V44.9667H285.415ZM271.977 32.6348V29.7627H288.287V32.6348L282.011 33.4786H278.508L271.977 32.6348Z" fill="#F6F6F5"/>
<path d="M324.871 29.5075C324.871 41.8465 316.73 48.0869 307.895 48.0869C299.059 48.0869 290.896 41.9812 290.896 29.5075C290.896 17.1684 299.108 10.928 307.895 10.928C316.674 10.928 324.871 17.0337 324.871 29.5075ZM307.887 44.9809C313.27 44.9809 315.383 38.3788 315.383 29.5075C315.383 20.6716 313.27 13.9915 307.887 13.9915C302.505 13.9915 300.371 20.6645 300.371 29.5075C300.378 38.3859 302.505 44.9809 307.887 44.9809Z" fill="#F6F6F5"/>
<path d="M333.55 28.3927C332.288 32.2859 347.335 27.4921 347.832 25.1449C346.754 25.1945 347.137 24.0599 346.761 23.5564C347.279 23.599 347.371 22.9536 347.945 23.2515C347.676 23.9464 348.094 24.223 348.045 24.7832C347.967 23.7975 353.881 14.6354 350.59 15.1389C346.924 15.1673 342.52 16.3019 339.294 18.0251C337.124 18.7768 336.145 22.6061 335.266 24.4145C335.677 24.3152 335.954 24.4712 336.308 24.9038C335.663 25.1449 335.372 25.2654 334.996 25.0527L333.55 28.3927ZM348.243 21.1666C348.286 20.9113 348.789 20.968 348.796 21.2446C348.576 21.1524 348.307 21.5212 348.243 21.1666ZM336.684 24.2443C336.649 23.6699 337.266 23.8117 337.124 23.1238C337.975 23.528 338.528 22.8898 339.18 22.7054C339.535 23.1238 339.4 23.8401 339.826 24.2159C340.57 24.2655 340.478 23.1167 341.35 23.4855C340.925 24.3081 341.953 24.2443 341.712 24.9605C339.946 24.9818 338.415 24.3223 336.684 24.2443Z" fill="#F6F6F5"/>
<path d="M333.535 34.1296C336.953 42.0861 336.818 45.1496 346.399 46.9934C347.378 46.7806 352.689 48.6315 351.625 46.0219C351.065 45.0291 348.136 37.2073 347.236 36.6399L346.895 36.5903C346.902 36.5052 346.917 36.4272 346.924 36.3421C345.988 34.9238 332.103 30.3499 333.535 34.1296ZM343.96 44.2065C344.009 44.2136 344.052 44.2206 344.101 44.2348C344.35 44.5043 344.023 45.5113 343.591 45.8162C343.116 45.4758 342.789 44.0363 343.96 44.2065ZM341.797 40.8026C342.584 40.9515 342.208 42.618 341.251 42.1641C340.903 41.7883 340.974 40.6891 341.797 40.8026Z" fill="#F6F6F5"/>
<path d="M352.34 28.421C351.312 31.0448 356.545 29.2365 357.552 29.4634C359.637 29.3642 362.786 27.7544 364.693 26.9673C367.253 26.2156 369.296 18.5568 370.459 16.5783C370.778 15.8408 370.48 15.2594 369.806 15.1672C365.991 15.0963 361.453 16.2451 358.098 18.0605C355.545 18.8263 353.503 26.4496 352.34 28.421ZM354.368 28.187C354.893 28.0523 355.347 27.5417 355.489 28.343C355.319 28.3855 354.34 28.7827 354.368 28.187Z" fill="#F6F6F5"/>
<path d="M352.348 34.1651L353.809 37.569C353.944 37.1648 354.277 36.8598 354.823 37.0017C354.738 37.6044 354.653 38.193 354.114 38.2923C354.908 39.9091 355.801 43.313 357.553 44.2491C357.702 44.2562 357.823 44.2349 357.801 44.0505L358.361 44.1285C358.34 44.2916 358.418 44.4193 358.61 44.398C358.595 44.5115 358.574 44.6249 358.567 44.7384C361.638 46.4332 365.878 47.3622 369.403 47.4402C372.204 47.6529 368.85 43.1854 368.743 42.1855C368.509 42.7173 368.148 43.1144 367.36 43.0435C367.339 42.8379 367.077 42.7244 366.829 42.7315C367.531 41.7671 367.19 41.4763 367.375 40.9161C367.446 41.2281 367.984 41.0154 368.254 41.0579C367.474 39.3489 366.609 36.4131 364.644 35.6685C362.822 34.8955 359.9 33.3496 357.879 33.151C356.794 33.3851 351.369 31.4987 352.348 34.1651ZM368.297 46.5041C368.495 45.9936 368.162 44.8022 369.055 45.1922C369.013 45.8659 368.814 46.3552 368.297 46.5041ZM365.403 42.7811C365.751 42.8095 365.914 42.5329 366.275 42.6677C366.318 42.9939 366.609 43.1641 366.424 43.6321C365.85 43.6179 365.191 43.4123 365.403 42.7811ZM359.468 42.4053C359.879 42.4762 360.9 41.7955 361.177 42.4124C360.737 42.5471 360.666 43.1003 360.453 43.4903C359.68 43.5328 359.709 42.8095 359.468 42.4053Z" fill="#F6F6F5"/>
<path d="M37.0396 33.3793C38.3019 29.4861 23.2539 34.2799 22.7575 36.6271C23.8354 36.5775 23.4525 37.7121 23.8284 38.2156C23.3107 38.1731 23.2185 38.8184 22.6441 38.5206C22.9136 37.8256 22.4952 37.549 22.5448 36.9888C22.6228 37.9745 16.7086 47.1366 19.999 46.6331C23.6653 46.6048 28.069 45.4701 31.2956 43.7469C33.4656 42.9952 34.4442 39.1659 35.3235 37.3576C34.9122 37.4568 34.6356 37.3008 34.2811 36.8683C34.9264 36.6272 35.2171 36.5066 35.593 36.7193L37.0396 33.3793ZM22.3463 40.6054C22.3037 40.8607 21.8002 40.804 21.7931 40.5274C22.013 40.6125 22.2824 40.2438 22.3463 40.6054ZM33.9052 37.5278C33.9407 38.1022 33.3237 37.9603 33.4656 38.6482C32.6146 38.244 32.0615 38.8822 31.4091 39.0666C31.0545 38.6482 31.1892 37.932 30.7637 37.5561C30.0191 37.5065 30.1113 38.6553 29.2391 38.2866C29.6646 37.464 28.6363 37.5278 28.8774 36.8115C30.6432 36.7903 32.1749 37.4498 33.9052 37.5278Z" fill="#F6F6F5"/>
<path d="M37.0525 27.6425C33.6345 19.6859 33.7692 16.6224 24.1887 14.7787C23.2101 14.9914 17.8986 13.1406 18.9624 15.7502C19.5226 16.743 22.4513 24.5648 23.3519 25.1321L23.6923 25.1818C23.6852 25.2669 23.671 25.3449 23.664 25.43C24.6 26.8411 38.485 31.4222 37.0525 27.6425ZM26.6282 17.5656C26.5785 17.5585 26.536 17.5514 26.4863 17.5372C26.2381 17.2678 26.5643 16.2608 26.9969 15.9558C27.472 16.2891 27.7982 17.7287 26.6282 17.5656ZM28.791 20.9624C28.0039 20.8134 28.3797 19.147 29.3371 19.6008C29.6846 19.9838 29.6207 21.0829 28.791 20.9624Z" fill="#F6F6F5"/>
<path d="M18.2468 33.3509C19.2751 30.727 14.0416 32.5353 13.0347 32.3084C10.9498 32.4077 7.80121 34.0175 5.89362 34.8046C3.33363 35.5563 1.2913 43.215 0.128315 45.1935C-0.190798 45.931 0.10705 46.5125 0.780733 46.6047C4.59591 46.6756 9.13441 45.5268 12.4886 43.7114C15.0415 42.9455 17.0839 35.3223 18.2468 33.3509ZM16.2187 33.5849C15.6939 33.7196 15.2401 34.2302 15.0983 33.4289C15.2685 33.3863 16.2471 32.9892 16.2187 33.5849Z" fill="#F6F6F5"/>
<path d="M18.2405 27.5998L16.7797 24.1959C16.6449 24.6002 16.3187 24.9051 15.7656 24.7633C15.8507 24.1605 15.9358 23.5719 16.4747 23.4726C15.6805 21.8558 14.787 18.4519 13.0354 17.5159C12.8865 17.5088 12.7659 17.53 12.7872 17.7144L12.227 17.6364C12.2482 17.4733 12.1703 17.3457 11.9788 17.367C11.993 17.2535 12.0142 17.14 12.0213 17.0266C8.95076 15.3317 4.7101 14.4027 1.18567 14.3247C-1.61543 14.112 1.7388 18.5796 1.84517 19.5795C2.07919 19.0476 2.44083 18.6505 3.22798 18.7214C3.24925 18.927 3.51163 19.0405 3.75983 19.0334C3.05779 19.9978 3.39818 20.2886 3.2138 20.8488C3.14289 20.5368 2.60395 20.7495 2.33448 20.707C3.11453 22.416 3.97968 25.3519 5.944 26.0965C7.76649 26.8694 10.6881 28.4153 12.7092 28.6139C13.7942 28.387 19.2191 30.2733 18.2405 27.5998ZM2.29193 15.2679C2.09337 15.7785 2.42666 16.9698 1.53315 16.5798C1.57569 15.9061 1.77426 15.4097 2.29193 15.2679ZM5.18521 18.9909C4.83773 18.9625 4.67464 19.2391 4.31298 19.1043C4.27043 18.7781 3.97967 18.6079 4.16405 18.1399C4.73845 18.147 5.39795 18.3597 5.18521 18.9909ZM11.1207 19.3667C10.7094 19.2958 9.68824 19.9766 9.41168 19.3596C9.85135 19.2249 9.92227 18.6718 10.135 18.2817C10.908 18.2392 10.8796 18.9625 11.1207 19.3667Z" fill="#F6F6F5"/>
</svg>
