<svg width="270" height="62" viewBox="0 0 270 62" fill="none" xmlns="http://www.w3.org/2000/svg">
<path d="M24.9368 43.0664C24.6159 50.0123 26.8104 56.482 30.7026 61.6163C50.0806 57.5378 56.5917 31.1415 41.406 18.4919C32.0793 22.8499 25.4337 32.0938 24.9368 43.0664ZM6.00388 35.3235C18.4878 34.2366 28.094 24.5062 29.2534 12.6847C15.5376 9.69315 0.610739 21.3076 0 35.1475C1.94608 35.427 3.95428 35.4995 6.00388 35.3235ZM5.1033 43.1389C3.50917 42.5695 1.91504 42.1555 0.331256 41.8863C2.0289 52.155 11.1589 60.7054 21.0757 61.9993C20.8065 54.2874 14.5542 46.5238 5.1033 43.1389Z" fill="url(#paint0_linear_406_151)"/>
<path d="M139.611 15.9238H132.406V57.5783H139.611V15.9238Z" fill="black"/>
<path d="M161.359 27.3427C157.767 27.3427 154.341 28.6987 152.126 32.3114V27.9741H145.635V57.5794H152.571C153.679 51.3375 148.679 33.4501 159.32 33.5846C169.62 33.3465 164.444 51.5963 165.645 57.5794H172.591C171.856 48.1285 176.711 26.6905 161.359 27.3427Z" fill="black"/>
<path d="M201.192 35.3126C208.386 30.23 205.291 18.1912 196.896 16.4728C193.666 15.4894 181.617 16.0588 177.849 15.9139V57.5683C182.362 57.3095 195.374 58.2929 199.287 56.6263C208.955 54.1213 210.881 39.3704 201.192 35.3126ZM184.981 22.4664C189.422 22.7562 198.19 20.7998 198.066 27.6732C198.086 34.588 189.557 32.5901 184.981 32.88V22.4664ZM195.778 50.7984C193.884 51.2436 187.021 50.9641 184.981 51.0469V39.2979C186.7 39.3807 194.318 39.1012 195.84 39.5153C202.455 41.0577 201.658 49.7219 195.778 50.7984Z" fill="black"/>
<path d="M262.255 27.9746L254.844 49.1227L247.318 27.9746H239.803L251.562 57.5799H257.97L269.709 27.9746H262.255Z" fill="black"/>
<path d="M225.177 27.3418C191.72 32.5383 221.771 78.6646 239.462 48.5003H232.402C228.686 54.794 217.982 52.4546 217.071 45.3017H240.176C241.687 36.3787 235.29 27.3211 225.177 27.3418ZM217.092 40.4468C217.879 31.058 232.806 31.3168 233.499 40.4468H217.092Z" fill="black"/>
<path d="M121.682 35.3761C129.011 29.7552 125.823 18.3892 117.448 16.4846C114.219 15.5012 102.169 16.0705 98.4015 15.9256V33.5024C94.7267 34.0614 91.1658 34.9309 87.7808 36.0593L79.5617 15.9152C79.2512 15.9152 73.268 15.9152 72.9471 15.9152L55.95 57.5697H62.8854C68.879 51.2346 76.0319 46.6799 83.4849 43.6676L88.6918 57.5697H96.5589L89.9754 41.442C92.791 40.6346 95.6169 40.0446 98.4015 39.6409V57.5801H101.983V57.5904H114.55C128.555 58.3047 133.359 41.3592 121.682 35.3761ZM66.9122 48.1188L76.1665 24.1654L81.5492 38.5333C75.9801 41.0797 71.0114 44.3612 66.9122 48.1188ZM105.534 22.4677C107.645 22.5506 113.225 22.1986 115.026 22.8921C119.705 23.9376 119.788 32.0636 115.212 33.3472C112.376 32.8399 108.753 32.7468 105.534 32.871V22.4677ZM114.115 51.0379H105.534V39.0612C118.225 36.6183 128.866 48.2844 114.115 51.0379Z" fill="black"/>
<path d="M75.5039 8.79318C68.1647 4.03149 79.8516 -4.97433 82.2014 3.48285H80.1311C79.2305 0.656891 74.9346 1.85767 75.2141 4.70434C74.9346 7.62346 79.3651 8.80353 80.1311 5.81194H82.2324C81.8805 8.89669 78.009 10.3252 75.5039 8.79318Z" fill="black"/>
<path d="M84.6442 8.97881C78.7232 4.62083 90.0063 -1.02073 89.4577 6.53587H84.8099C84.9444 7.89192 87.0458 8.46124 87.6462 7.18801H89.437C89.0022 9.18585 86.3419 9.99326 84.6442 8.97881ZM87.6773 5.25228C87.5013 3.80307 85.2653 3.91694 84.9237 5.25228H87.6773Z" fill="black"/>
<path d="M92.3873 3.63735C92.9256 2.9231 93.7227 2.86098 94.5094 2.90239V4.46548C91.611 3.78228 92.5116 7.62268 92.3873 9.22716H90.5862V2.90239H92.3873V3.63735Z" fill="black"/>
<path d="M99.2192 9.22712H97.3248L94.9026 2.90234H96.9211L98.3289 6.93944L99.7161 2.90234H101.652L99.2192 9.22712Z" fill="black"/>
<path d="M103.318 8.97881C97.3972 4.62083 108.68 -1.02073 108.132 6.53587H103.484C103.619 7.89192 105.72 8.46124 106.32 7.18801H108.111C107.676 9.18585 105.016 9.99326 103.318 8.97881ZM106.351 5.25228C106.175 3.80307 103.939 3.91694 103.598 5.25228H106.351Z" fill="black"/>
<path d="M110.637 8.97987C105.296 5.56387 113.856 -0.895457 115.399 5.3051H113.566C113.028 3.73167 110.585 4.45627 110.751 6.08146C110.595 7.72735 113.101 8.4209 113.587 6.77501H115.399C115.274 9.02129 112.448 10.0668 110.637 8.97987Z" fill="black"/>
<path d="M117.821 8.97881C111.9 4.62083 123.183 -1.02073 122.634 6.53587H117.987C118.121 7.89192 120.223 8.46124 120.823 7.18801H122.614C122.179 9.18585 119.519 9.99326 117.821 8.97881ZM120.854 5.25228C120.678 3.80307 118.442 3.91694 118.1 5.25228H120.854Z" fill="black"/>
<path d="M125.564 3.63735C126.102 2.9231 126.899 2.86098 127.686 2.90239V4.46548C124.788 3.78228 125.688 7.62268 125.564 9.22716H123.763V2.90239H125.564V3.63735Z" fill="black"/>
<path d="M130.429 9.22729H128.617V2.90252H130.429V9.22729ZM130.356 2.25037H128.742L129.942 0.242188H131.899L130.356 2.25037Z" fill="black"/>
<path d="M132.137 8.87665C130.118 6.66143 133.151 4.87061 135.439 5.32608C135.677 3.99073 133.503 3.77336 133.369 5.0466H131.568C131.619 2.71751 135.066 2.04465 136.505 3.45246C137.758 4.39444 137.106 7.89325 137.261 9.23895H135.481V8.5661C134.787 9.62196 133.007 9.64266 132.137 8.87665ZM133.514 7.8415C134.352 8.44189 135.563 7.56201 135.481 6.54756C134.621 6.4544 132.592 6.59932 133.514 7.8415Z" fill="black"/>
<defs>
<linearGradient id="paint0_linear_406_151" x1="-0.00527927" y1="37.1034" x2="49.7983" y2="37.1034" gradientUnits="userSpaceOnUse">
<stop stop-color="#D2A43B"/>
<stop offset="0.1996" stop-color="#DFB92B"/>
<stop offset="0.4307" stop-color="#E9CA1E"/>
<stop offset="0.6842" stop-color="#F0D416"/>
<stop offset="1" stop-color="#F2D714"/>
</linearGradient>
</defs>
</svg>
